<mxfile host="app.diagrams.net" agent="Mozilla/5.0 (Windows NT 10.0; Win64; x64) AppleWebKit/537.36 (KHTML, like Gecko) Chrome/139.0.0.0 Safari/537.36" version="28.1.0">
  <diagram name="Page-1" id="N0O9LKKhOwfbg1PPqN3X">
    <mxGraphModel dx="872" dy="534" grid="1" gridSize="10" guides="1" tooltips="1" connect="1" arrows="1" fold="1" page="1" pageScale="1" pageWidth="850" pageHeight="1100" math="0" shadow="0">
      <root>
        <mxCell id="0" />
        <mxCell id="1" parent="0" />
        <mxCell id="b-gsqjJBK6DLzQkzl94g-2" value="" style="rounded=0;whiteSpace=wrap;html=1;direction=south;" vertex="1" parent="1">
          <mxGeometry x="180" y="90" width="280" height="400" as="geometry" />
        </mxCell>
        <mxCell id="b-gsqjJBK6DLzQkzl94g-5" value="" style="endArrow=classic;html=1;rounded=0;" edge="1" parent="1">
          <mxGeometry width="50" height="50" relative="1" as="geometry">
            <mxPoint x="210" y="117" as="sourcePoint" />
            <mxPoint x="193" y="117" as="targetPoint" />
          </mxGeometry>
        </mxCell>
        <mxCell id="b-gsqjJBK6DLzQkzl94g-6" value="MY ORDERS" style="text;html=1;align=center;verticalAlign=middle;resizable=0;points=[];autosize=1;strokeColor=none;fillColor=none;" vertex="1" parent="1">
          <mxGeometry x="220" y="105" width="100" height="30" as="geometry" />
        </mxCell>
        <mxCell id="b-gsqjJBK6DLzQkzl94g-7" value="&lt;div style=&quot;text-align: justify;&quot;&gt;&lt;span style=&quot;background-color: transparent;&quot;&gt;&lt;font style=&quot;color: light-dark(rgb(230, 230, 230), rgb(255, 255, 255));&quot;&gt;Search in orders&lt;/font&gt;&lt;/span&gt;&lt;/div&gt;" style="rounded=1;whiteSpace=wrap;html=1;align=center;" vertex="1" parent="1">
          <mxGeometry x="200" y="150" width="160" height="30" as="geometry" />
        </mxCell>
        <mxCell id="b-gsqjJBK6DLzQkzl94g-9" value="" style="sketch=0;pointerEvents=1;shadow=0;dashed=0;html=1;strokeColor=none;fillColor=#505050;labelPosition=center;verticalLabelPosition=bottom;verticalAlign=top;outlineConnect=0;align=center;shape=mxgraph.office.concepts.search;direction=north;" vertex="1" parent="1">
          <mxGeometry x="210" y="155" width="20" height="20" as="geometry" />
        </mxCell>
        <mxCell id="b-gsqjJBK6DLzQkzl94g-16" value="&lt;b&gt;&lt;span style=&quot;white-space: pre;&quot;&gt;&#x9;&lt;/span&gt;FILTER&lt;/b&gt;" style="rounded=1;whiteSpace=wrap;html=1;" vertex="1" parent="1">
          <mxGeometry x="370" y="150" width="80" height="30" as="geometry" />
        </mxCell>
        <mxCell id="b-gsqjJBK6DLzQkzl94g-17" value="" style="html=1;verticalLabelPosition=bottom;align=center;labelBackgroundColor=#ffffff;verticalAlign=top;strokeWidth=2;strokeColor=#333333;shadow=0;dashed=0;shape=mxgraph.ios7.icons.volume;pointerEvents=1;direction=south;" vertex="1" parent="1">
          <mxGeometry x="380" y="157.5" width="15" height="15" as="geometry" />
        </mxCell>
        <mxCell id="b-gsqjJBK6DLzQkzl94g-18" value="" style="verticalLabelPosition=bottom;verticalAlign=top;html=1;shape=mxgraph.basic.rect;fillColor2=none;strokeWidth=1;size=20;indent=5;" vertex="1" parent="1">
          <mxGeometry x="180" y="220" width="280" height="280" as="geometry" />
        </mxCell>
        <mxCell id="b-gsqjJBK6DLzQkzl94g-19" value="" style="endArrow=none;html=1;rounded=0;" edge="1" parent="1">
          <mxGeometry width="50" height="50" relative="1" as="geometry">
            <mxPoint x="180" y="370" as="sourcePoint" />
            <mxPoint x="460" y="370" as="targetPoint" />
          </mxGeometry>
        </mxCell>
        <mxCell id="b-gsqjJBK6DLzQkzl94g-20" value="&lt;b&gt;Filter Orders&lt;/b&gt;" style="text;html=1;align=center;verticalAlign=middle;resizable=0;points=[];autosize=1;strokeColor=none;fillColor=none;" vertex="1" parent="1">
          <mxGeometry x="170" y="230" width="100" height="30" as="geometry" />
        </mxCell>
        <mxCell id="b-gsqjJBK6DLzQkzl94g-21" value="&lt;b&gt;Time&lt;/b&gt;" style="text;html=1;align=center;verticalAlign=middle;resizable=0;points=[];autosize=1;strokeColor=none;fillColor=none;" vertex="1" parent="1">
          <mxGeometry x="180" y="380" width="50" height="30" as="geometry" />
        </mxCell>
        <mxCell id="b-gsqjJBK6DLzQkzl94g-22" value="&lt;b&gt;Status&lt;/b&gt;" style="text;html=1;align=center;verticalAlign=middle;resizable=0;points=[];autosize=1;strokeColor=none;fillColor=none;fontSize=11;" vertex="1" parent="1">
          <mxGeometry x="180" y="260" width="60" height="30" as="geometry" />
        </mxCell>
        <mxCell id="b-gsqjJBK6DLzQkzl94g-23" value="All&lt;div&gt;On the way&lt;/div&gt;&lt;div&gt;Delivered&lt;/div&gt;&lt;div&gt;Cancelled&lt;/div&gt;&lt;div&gt;Returned&lt;/div&gt;&lt;div&gt;&lt;br&gt;&lt;/div&gt;" style="text;html=1;align=left;verticalAlign=middle;resizable=0;points=[];autosize=1;strokeColor=none;fillColor=none;" vertex="1" parent="1">
          <mxGeometry x="200" y="280" width="80" height="100" as="geometry" />
        </mxCell>
        <mxCell id="b-gsqjJBK6DLzQkzl94g-24" value="Anytime&lt;div&gt;Last 30 days&lt;/div&gt;&lt;div&gt;Last 6 months&lt;/div&gt;&lt;div&gt;Last year&lt;/div&gt;" style="text;html=1;align=left;verticalAlign=middle;resizable=0;points=[];autosize=1;strokeColor=none;fillColor=none;" vertex="1" parent="1">
          <mxGeometry x="200" y="410" width="100" height="70" as="geometry" />
        </mxCell>
      </root>
    </mxGraphModel>
  </diagram>
</mxfile>
